<svg width="19" height="18" viewBox="0 0 19 18" fill="none" xmlns="http://www.w3.org/2000/svg">
	<symbol id="trash" viewBox="0 0 19 18">
		<path d="M17 2.99999H15.5H13.25V0.749988C13.25 0.335988 12.9147 0 12.5 0H6.49999C6.08525 0 5.75 0.335988 5.75 0.749988V2.99999H3.5H1.99999C1.58525 2.99999 1.25 3.33598 1.25 3.74998C1.25 4.16398 1.58521 4.5 1.99999 4.5H2.74998V15.75C2.74998 16.9905 3.75949 18 4.99998 18H14C15.2405 18 16.25 16.9905 16.25 15.75V4.5H17C17.4147 4.5 17.75 4.16401 17.75 3.75001C17.75 3.33601 17.4147 2.99999 17 2.99999ZM7.24998 1.50001H11.75V3.00002H7.24998V1.50001ZM14.75 15.75C14.75 16.1633 14.414 16.5 14 16.5H4.99998C4.58598 16.5 4.24999 16.1632 4.24999 15.75V4.5H6.49999H12.5H14.75V15.75H14.75Z" fill="currentColor" />
		<path d="M7.24999 6C6.83525 6 6.5 6.33599 6.5 6.74999V13.5C6.5 13.914 6.83525 14.25 7.24999 14.25C7.66473 14.25 7.99998 13.914 7.99998 13.5V6.74999C7.99998 6.33599 7.66473 6 7.24999 6Z" fill="currentColor" />
		<path d="M11.75 6C11.3353 6 11 6.33599 11 6.74999V13.5C11 13.914 11.3353 14.25 11.75 14.25C12.1647 14.25 12.5 13.914 12.5 13.5V6.74999C12.5 6.33599 12.1647 6 11.75 6Z" fill="currentColor" />
	</symbol>
	<symbol id="settings" viewBox="0 0 19 18">
		<g clip-path="url(#clip0_60_115)">
			<path d="M17.75 14.25H15.7527C15.428 13.1693 14.435 12.375 13.25 12.375C12.065 12.375 11.0728 13.1693 10.7473 14.25H1.24999C0.835988 14.25 0.5 14.586 0.5 15C0.5 15.414 0.835988 15.75 1.24999 15.75H10.7472C11.072 16.8307 12.065 17.625 13.25 17.625C14.435 17.625 15.4272 16.8307 15.7527 15.75H17.75C18.1647 15.75 18.5 15.414 18.5 15C18.5 14.586 18.1647 14.25 17.75 14.25ZM13.25 16.125C12.6297 16.125 12.125 15.6203 12.125 15C12.125 14.3797 12.6297 13.875 13.25 13.875C13.8703 13.875 14.375 14.3797 14.375 15C14.375 15.6203 13.8702 16.125 13.25 16.125Z" fill="currentColor" />
			<path d="M17.75 2.24999H15.7527C15.4272 1.16925 14.435 0.375 13.25 0.375C12.065 0.375 11.0728 1.16925 10.7472 2.24999H1.24999C0.835988 2.24999 0.5 2.58598 0.5 2.99998C0.5 3.41398 0.835988 3.74997 1.24999 3.74997H10.7472C11.0728 4.83074 12.065 5.62499 13.25 5.62499C14.435 5.62499 15.4273 4.83074 15.7527 3.75H17.75C18.1647 3.75 18.5 3.41401 18.5 3.00001C18.5 2.58601 18.1647 2.24999 17.75 2.24999ZM13.25 4.12498C12.6297 4.12498 12.125 3.62024 12.125 2.99998C12.125 2.37971 12.6297 1.87498 13.25 1.87498C13.8703 1.87498 14.375 2.37971 14.375 2.99998C14.375 3.62024 13.8702 4.12498 13.25 4.12498Z" fill="currentColor" />
			<path d="M17.75 8.24999H8.25276C7.92725 7.16925 6.935 6.375 5.75002 6.375C4.56505 6.375 3.57276 7.16925 3.24729 8.24999H1.24999C0.835988 8.24999 0.5 8.58598 0.5 8.99998C0.5 9.41398 0.835988 9.74997 1.24999 9.74997H3.24725C3.57276 10.8307 4.56501 11.625 5.74999 11.625C6.93496 11.625 7.92725 10.8307 8.25273 9.74997H17.75C18.1647 9.74997 18.5 9.41398 18.5 8.99998C18.5 8.58598 18.1647 8.24999 17.75 8.24999ZM5.74999 10.125C5.12973 10.125 4.62499 9.62024 4.62499 8.99998C4.62499 8.37972 5.12973 7.87498 5.74999 7.87498C6.37025 7.87498 6.87499 8.37972 6.87499 8.99998C6.87499 9.62024 6.37025 10.125 5.74999 10.125Z" fill="currentColor" />
		</g>
		<defs>
			<clipPath id="clip0_60_115">
				<rect width="18" height="18" fill="white" transform="translate(0.5)" />
			</clipPath>
		</defs>
	</symbol>
	<symbol id="folder" viewBox="0 0 19 18">
		<g clip-path="url(#clip0_52_1851)">
			<path d="M16.2822 4.15748H10.5851C10.3539 4.15748 10.128 4.06252 9.97199 3.90112L8.19439 2.02856C7.7671 1.60264 7.18249 1.38017 6.59039 1.38358H2.71779C1.49496 1.38355 0.5 2.3785 0.5 3.60131V14.3986C0.5 15.6214 1.49496 16.6164 2.71779 16.6164H16.2903H16.2924C17.5145 16.611 18.5054 15.6113 18.5 14.3918V6.37523C18.5 5.1524 17.505 4.15748 16.2822 4.15748ZM17.1435 14.3945C17.1456 14.8693 16.761 15.2579 16.289 15.2599H2.71779C2.24304 15.2599 1.85647 14.8734 1.85647 14.3986V3.60131C1.85647 3.12656 2.24304 2.73998 2.71779 2.73928H6.60804C6.61549 2.73928 6.62294 2.73928 6.63043 2.73928C6.85694 2.73928 7.0767 2.82949 7.22453 2.97598L8.99264 4.83972C9.4077 5.26834 9.98827 5.51387 10.5851 5.51387H16.2822C16.7569 5.51387 17.1435 5.90045 17.1435 6.3752V14.3945H17.1435Z" fill="currentColor" />
		</g>
		<defs>
			<clipPath id="clip0_52_1851">
				<rect width="18" height="18" fill="white" transform="translate(0.5)" />
			</clipPath>
		</defs>
	</symbol>
	<symbol id="copy" viewBox="0 0 18 18">
		<g clip-path="url(#clip0_52_1839)">
			<path d="M15.9231 4.50013H15.2308V3.1155C15.2308 1.97043 14.2989 1.03857 13.1539 1.03857H2.07693C0.931852 1.03857 0 1.97043 0 3.1155V12.1155C0 13.2606 0.931852 14.1924 2.07693 14.1924H3.46155V14.8847C3.46155 16.0298 4.39341 16.9616 5.53848 16.9616H15.9231C17.0682 16.9616 18 16.0298 18 14.8847V6.57705C18 5.43198 17.0681 4.50013 15.9231 4.50013ZM2.07693 12.8078C1.69548 12.8078 1.38463 12.4977 1.38463 12.1155V3.11554C1.38463 2.73339 1.69548 2.42324 2.07693 2.42324H13.1539C13.5353 2.42324 13.8461 2.73339 13.8461 3.11554V12.1155C13.8461 12.4977 13.5353 12.8078 13.1539 12.8078H2.07693ZM16.6154 14.8848C16.6154 15.2669 16.3045 15.5771 15.9231 15.5771H5.53844C5.157 15.5771 4.84615 15.2669 4.84615 14.8848V14.1925H13.1539C14.2989 14.1925 15.2308 13.2606 15.2308 12.1155V5.88476H15.9231C16.3045 5.88476 16.6154 6.19491 16.6154 6.57705V14.8848Z" fill="currentColor" />
			<path d="M11.0773 5.19214H4.15421C3.77206 5.19214 3.46191 5.50158 3.46191 5.88444C3.46191 6.26729 3.77206 6.57673 4.15421 6.57673H11.0773C11.4594 6.57673 11.7696 6.26729 11.7696 5.88444C11.7696 5.50162 11.4594 5.19214 11.0773 5.19214Z" fill="currentColor" />
			<path d="M9.69185 8.65405H5.538C5.15585 8.65405 4.8457 8.9635 4.8457 9.34635C4.8457 9.7292 5.15585 10.0387 5.538 10.0387H9.69185C10.074 10.0387 10.3841 9.7292 10.3841 9.34635C10.3842 8.9635 10.074 8.65405 9.69185 8.65405Z" fill="currentColor" />
		</g>
		<defs>
			<clipPath id="clip0_52_1839">
				<rect width="18" height="18" fill="white" />
			</clipPath>
		</defs>
	</symbol>
	<symbol id="search" viewBox="0 0 18 18">
		<g clip-path="url(#clip0_60_9)">
			<path d="M17.7184 16.7099L14.046 13.0436C15.2152 11.6621 15.9238 9.8788 15.9238 7.93086C15.9238 3.55757 12.3662 0 7.99292 0C3.61963 0 0.0605469 3.5583 0.0605469 7.9316C0.0605469 12.3049 3.61885 15.8625 7.99141 15.8625C9.87368 15.8625 11.6033 15.2001 12.9644 14.1003L16.6496 17.7795C16.7969 17.926 16.9903 18 17.1836 18C17.377 18 17.5704 17.926 17.7184 17.778C18.013 17.4834 18.0122 17.0053 17.7184 16.7099ZM7.99141 14.3518C4.45125 14.3518 1.57121 11.4718 1.57121 7.9316C1.57121 4.39144 4.45121 1.5114 7.99141 1.5114C11.5316 1.5114 14.4116 4.39144 14.4116 7.9316C14.4116 11.4718 11.5316 14.3518 7.99141 14.3518Z" fill="currentColor" />
		</g>
		<defs>
			<clipPath id="clip0_60_9">
				<rect width="18" height="18" fill="white" />
			</clipPath>
		</defs>
	</symbol>
</svg>
