<svg width="103" height="30" viewBox="0 0 103 30" fill="none" xmlns="http://www.w3.org/2000/svg">
<path d="M6.19824 21H2.79297L2.81445 18.4863H6.19824C7.04329 18.4863 7.75586 18.2965 8.33594 17.917C8.91602 17.5303 9.35286 16.9681 9.64648 16.2305C9.94727 15.4928 10.0977 14.6012 10.0977 13.5557V12.793C10.0977 11.9909 10.0117 11.2855 9.83984 10.6768C9.67513 10.068 9.42806 9.55599 9.09863 9.14062C8.76921 8.72526 8.36458 8.41374 7.88477 8.20605C7.40495 7.99121 6.85352 7.88379 6.23047 7.88379H2.72852V5.35938H6.23047C7.27604 5.35938 8.2321 5.53841 9.09863 5.89648C9.97233 6.2474 10.7279 6.75228 11.3652 7.41113C12.0026 8.06999 12.4932 8.85775 12.8369 9.77441C13.1878 10.6839 13.3633 11.6973 13.3633 12.8145V13.5557C13.3633 14.6657 13.1878 15.679 12.8369 16.5957C12.4932 17.5124 12.0026 18.3001 11.3652 18.959C10.735 19.6107 9.97949 20.1156 9.09863 20.4736C8.22493 20.8245 7.25814 21 6.19824 21ZM4.61914 5.35938V21H1.39648V5.35938H4.61914ZM20.8613 21.2148C19.959 21.2148 19.1497 21.0716 18.4336 20.7852C17.7174 20.4915 17.1087 20.0869 16.6074 19.5713C16.1133 19.0557 15.7337 18.4577 15.4688 17.7773C15.2038 17.0898 15.0713 16.3594 15.0713 15.5859V15.1562C15.0713 14.2754 15.1966 13.4697 15.4473 12.7393C15.6979 12.0088 16.056 11.375 16.5215 10.8379C16.9941 10.3008 17.5671 9.889 18.2402 9.60254C18.9134 9.30892 19.6725 9.16211 20.5176 9.16211C21.3411 9.16211 22.0716 9.29818 22.709 9.57031C23.3464 9.84245 23.8799 10.2292 24.3096 10.7305C24.7464 11.2318 25.0758 11.8333 25.2979 12.5352C25.5199 13.2298 25.6309 14.0033 25.6309 14.8555V16.1445H16.3926V14.082H22.5908V13.8457C22.5908 13.416 22.512 13.0329 22.3545 12.6963C22.2041 12.3525 21.9749 12.0804 21.667 11.8799C21.359 11.6794 20.9652 11.5791 20.4854 11.5791C20.0771 11.5791 19.7262 11.6686 19.4326 11.8477C19.139 12.0267 18.8991 12.2773 18.7129 12.5996C18.5339 12.9219 18.3978 13.3014 18.3047 13.7383C18.2188 14.168 18.1758 14.6406 18.1758 15.1562V15.5859C18.1758 16.0514 18.2402 16.4811 18.3691 16.875C18.5052 17.2689 18.695 17.609 18.9385 17.8955C19.1891 18.182 19.4899 18.404 19.8408 18.5615C20.1989 18.7191 20.6035 18.7979 21.0547 18.7979C21.6133 18.7979 22.1325 18.6904 22.6123 18.4756C23.0993 18.2536 23.5182 17.9206 23.8691 17.4766L25.373 19.1094C25.1296 19.4603 24.7965 19.7969 24.374 20.1191C23.9587 20.4414 23.4574 20.7064 22.8701 20.9141C22.2829 21.1146 21.6133 21.2148 20.8613 21.2148ZM30.4863 11.7832V21H27.3818V9.37695H30.293L30.4863 11.7832ZM30.0566 14.7803H29.1973C29.1973 13.971 29.2939 13.2262 29.4873 12.5459C29.6878 11.8584 29.9779 11.264 30.3574 10.7627C30.7441 10.2542 31.2204 9.86035 31.7861 9.58105C32.3519 9.30176 33.0072 9.16211 33.752 9.16211C34.2676 9.16211 34.7402 9.24089 35.1699 9.39844C35.5996 9.54883 35.9684 9.78874 36.2764 10.1182C36.5915 10.4404 36.835 10.863 37.0068 11.3857C37.1787 11.9014 37.2646 12.5208 37.2646 13.2441V21H34.1709V13.5879C34.1709 13.0579 34.0993 12.6497 33.9561 12.3633C33.8128 12.0768 33.6087 11.8763 33.3438 11.7617C33.0859 11.6471 32.7744 11.5898 32.4092 11.5898C32.0081 11.5898 31.6572 11.6722 31.3564 11.8369C31.0628 12.0016 30.8193 12.2308 30.626 12.5244C30.4326 12.8109 30.2894 13.1475 30.1963 13.5342C30.1032 13.9209 30.0566 14.3363 30.0566 14.7803ZM36.9746 14.4258L35.8682 14.5654C35.8682 13.8063 35.9613 13.1009 36.1475 12.4492C36.3408 11.7975 36.6237 11.2246 36.9961 10.7305C37.3757 10.2363 37.8447 9.85319 38.4033 9.58105C38.9619 9.30176 39.6064 9.16211 40.3369 9.16211C40.8955 9.16211 41.404 9.24447 41.8623 9.40918C42.3206 9.56673 42.7109 9.82096 43.0332 10.1719C43.3626 10.5156 43.6133 10.9668 43.7852 11.5254C43.9642 12.084 44.0537 12.7679 44.0537 13.5771V21H40.9492V13.5771C40.9492 13.04 40.8776 12.6318 40.7344 12.3525C40.5983 12.0661 40.3978 11.8691 40.1328 11.7617C39.875 11.6471 39.5671 11.5898 39.209 11.5898C38.8366 11.5898 38.5107 11.665 38.2314 11.8154C37.9521 11.9587 37.7194 12.1592 37.5332 12.417C37.347 12.6748 37.2074 12.9756 37.1143 13.3193C37.0212 13.6559 36.9746 14.0247 36.9746 14.4258ZM45.9551 15.3066V15.0811C45.9551 14.2288 46.0768 13.4447 46.3203 12.7285C46.5638 12.0052 46.9183 11.3786 47.3838 10.8486C47.8493 10.3187 48.4222 9.9069 49.1025 9.61328C49.7829 9.3125 50.5635 9.16211 51.4443 9.16211C52.3252 9.16211 53.1094 9.3125 53.7969 9.61328C54.4844 9.9069 55.0609 10.3187 55.5264 10.8486C55.999 11.3786 56.3571 12.0052 56.6006 12.7285C56.8441 13.4447 56.9658 14.2288 56.9658 15.0811V15.3066C56.9658 16.1517 56.8441 16.9359 56.6006 17.6592C56.3571 18.3753 55.999 19.002 55.5264 19.5391C55.0609 20.069 54.488 20.4808 53.8076 20.7744C53.1273 21.068 52.3467 21.2148 51.4658 21.2148C50.585 21.2148 49.8008 21.068 49.1133 20.7744C48.4329 20.4808 47.8564 20.069 47.3838 19.5391C46.9183 19.002 46.5638 18.3753 46.3203 17.6592C46.0768 16.9359 45.9551 16.1517 45.9551 15.3066ZM49.0488 15.0811V15.3066C49.0488 15.7936 49.0918 16.2484 49.1777 16.6709C49.2637 17.0934 49.3997 17.4658 49.5859 17.7881C49.7793 18.1032 50.0299 18.3503 50.3379 18.5293C50.6458 18.7083 51.0218 18.7979 51.4658 18.7979C51.8955 18.7979 52.2643 18.7083 52.5723 18.5293C52.8802 18.3503 53.1273 18.1032 53.3135 17.7881C53.4997 17.4658 53.6357 17.0934 53.7217 16.6709C53.8148 16.2484 53.8613 15.7936 53.8613 15.3066V15.0811C53.8613 14.6084 53.8148 14.1644 53.7217 13.749C53.6357 13.3265 53.4961 12.9541 53.3027 12.6318C53.1165 12.3024 52.8695 12.0446 52.5615 11.8584C52.2536 11.6722 51.8812 11.5791 51.4443 11.5791C51.0075 11.5791 50.6351 11.6722 50.3271 11.8584C50.0264 12.0446 49.7793 12.3024 49.5859 12.6318C49.3997 12.9541 49.2637 13.3265 49.1777 13.749C49.0918 14.1644 49.0488 14.6084 49.0488 15.0811ZM65.1514 15.4248H61.166V12.9111H65.1514C65.7673 12.9111 66.2686 12.8109 66.6553 12.6104C67.042 12.4027 67.3249 12.1162 67.5039 11.751C67.6829 11.3857 67.7725 10.974 67.7725 10.5156C67.7725 10.0501 67.6829 9.61686 67.5039 9.21582C67.3249 8.81478 67.042 8.49251 66.6553 8.24902C66.2686 8.00553 65.7673 7.88379 65.1514 7.88379H62.2832V21H59.0605V5.35938H65.1514C66.376 5.35938 67.4251 5.58138 68.2988 6.02539C69.1797 6.46224 69.8529 7.06738 70.3184 7.84082C70.7839 8.61426 71.0166 9.4987 71.0166 10.4941C71.0166 11.5039 70.7839 12.3776 70.3184 13.1152C69.8529 13.8529 69.1797 14.4222 68.2988 14.8232C67.4251 15.2243 66.376 15.4248 65.1514 15.4248ZM72.4023 15.3066V15.0811C72.4023 14.2288 72.5241 13.4447 72.7676 12.7285C73.0111 12.0052 73.3656 11.3786 73.8311 10.8486C74.2965 10.3187 74.8695 9.9069 75.5498 9.61328C76.2301 9.3125 77.0107 9.16211 77.8916 9.16211C78.7725 9.16211 79.5566 9.3125 80.2441 9.61328C80.9316 9.9069 81.5081 10.3187 81.9736 10.8486C82.4463 11.3786 82.8044 12.0052 83.0479 12.7285C83.2913 13.4447 83.4131 14.2288 83.4131 15.0811V15.3066C83.4131 16.1517 83.2913 16.9359 83.0479 17.6592C82.8044 18.3753 82.4463 19.002 81.9736 19.5391C81.5081 20.069 80.9352 20.4808 80.2549 20.7744C79.5745 21.068 78.7939 21.2148 77.9131 21.2148C77.0322 21.2148 76.248 21.068 75.5605 20.7744C74.8802 20.4808 74.3037 20.069 73.8311 19.5391C73.3656 19.002 73.0111 18.3753 72.7676 17.6592C72.5241 16.9359 72.4023 16.1517 72.4023 15.3066ZM75.4961 15.0811V15.3066C75.4961 15.7936 75.5391 16.2484 75.625 16.6709C75.7109 17.0934 75.847 17.4658 76.0332 17.7881C76.2266 18.1032 76.4772 18.3503 76.7852 18.5293C77.0931 18.7083 77.4691 18.7979 77.9131 18.7979C78.3428 18.7979 78.7116 18.7083 79.0195 18.5293C79.3275 18.3503 79.5745 18.1032 79.7607 17.7881C79.9469 17.4658 80.083 17.0934 80.1689 16.6709C80.262 16.2484 80.3086 15.7936 80.3086 15.3066V15.0811C80.3086 14.6084 80.262 14.1644 80.1689 13.749C80.083 13.3265 79.9434 12.9541 79.75 12.6318C79.5638 12.3024 79.3167 12.0446 79.0088 11.8584C78.7008 11.6722 78.3285 11.5791 77.8916 11.5791C77.4548 11.5791 77.0824 11.6722 76.7744 11.8584C76.4736 12.0446 76.2266 12.3024 76.0332 12.6318C75.847 12.9541 75.7109 13.3265 75.625 13.749C75.5391 14.1644 75.4961 14.6084 75.4961 15.0811ZM88.4082 11.9121V21H85.3145V9.37695H88.2256L88.4082 11.9121ZM91.9102 9.30176L91.8564 12.1699C91.7061 12.1484 91.5234 12.1305 91.3086 12.1162C91.1009 12.0947 90.9111 12.084 90.7393 12.084C90.3024 12.084 89.9229 12.1413 89.6006 12.2559C89.2855 12.3633 89.0205 12.5244 88.8057 12.7393C88.598 12.9541 88.4404 13.2155 88.333 13.5234C88.2327 13.8314 88.1755 14.1823 88.1611 14.5762L87.5381 14.3828C87.5381 13.6309 87.6133 12.9398 87.7637 12.3096C87.9141 11.6722 88.1325 11.1172 88.4189 10.6445C88.7126 10.1719 89.0706 9.80664 89.4932 9.54883C89.9157 9.29102 90.3991 9.16211 90.9434 9.16211C91.1152 9.16211 91.2907 9.17643 91.4697 9.20508C91.6488 9.22656 91.7956 9.25879 91.9102 9.30176ZM99.6016 9.37695V11.5684H92.834V9.37695H99.6016ZM94.5098 6.50879H97.6035V17.498C97.6035 17.8346 97.6465 18.0924 97.7324 18.2715C97.8255 18.4505 97.9616 18.5758 98.1406 18.6475C98.3197 18.7119 98.5452 18.7441 98.8174 18.7441C99.0107 18.7441 99.1826 18.737 99.333 18.7227C99.4906 18.7012 99.623 18.6797 99.7305 18.6582L99.7412 20.9355C99.4762 21.0215 99.1898 21.0895 98.8818 21.1396C98.5739 21.1898 98.2337 21.2148 97.8613 21.2148C97.181 21.2148 96.5866 21.1038 96.0781 20.8818C95.5768 20.6527 95.1901 20.2874 94.918 19.7861C94.6458 19.2848 94.5098 18.626 94.5098 17.8096V6.50879Z" fill="#0073A4"/>
<rect x="1" y="27" width="102" height="3" fill="#0073A4"/>
</svg>
