<svg width="138" height="34" viewBox="0 0 138 34" fill="none" xmlns="http://www.w3.org/2000/svg">
<path d="M7.03292 21.5815H2.42578L2.45485 18.113H7.03292C8.17622 18.113 9.14028 17.8512 9.92509 17.3274C10.7099 16.7938 11.3009 16.0181 11.6982 15.0003C12.1051 13.9825 12.3086 12.7522 12.3086 11.3095V10.2571C12.3086 9.15039 12.1923 8.17705 11.9598 7.33711C11.7369 6.49717 11.4027 5.79064 10.957 5.2175C10.5113 4.64437 9.96385 4.21452 9.31468 3.92795C8.66552 3.6315 7.91946 3.48328 7.07652 3.48328H2.33858V0H7.07652C8.49111 0 9.7846 0.247041 10.957 0.741122C12.139 1.22532 13.1612 1.92198 14.0236 2.83109C14.8859 3.7402 15.5496 4.82718 16.0146 6.09203C16.4894 7.34699 16.7268 8.74524 16.7268 10.2868V11.3095C16.7268 12.8412 16.4894 14.2394 16.0146 15.5043C15.5496 16.7691 14.8859 17.8561 14.0236 18.7652C13.1709 19.6644 12.1487 20.3611 10.957 20.8552C9.77491 21.3394 8.46689 21.5815 7.03292 21.5815ZM4.89648 0V21.5815H0.53642V0H4.89648Z" fill="#0073A4"/>
<path d="M26.8712 21.8779C25.6504 21.8779 24.5555 21.6803 23.5866 21.285C22.6177 20.8799 21.7942 20.3216 21.1159 19.6101C20.4474 18.8986 19.9339 18.0735 19.5754 17.1348C19.2169 16.1861 19.0376 15.1782 19.0376 14.111V13.5181C19.0376 12.3026 19.2072 11.1909 19.5463 10.183C19.8854 9.1751 20.3699 8.30057 20.9997 7.55945C21.6391 6.81833 22.4143 6.25013 23.325 5.85487C24.2358 5.44972 25.2628 5.24715 26.4061 5.24715C27.5204 5.24715 28.5087 5.4349 29.371 5.8104C30.2333 6.1859 30.9551 6.71951 31.5365 7.41122C32.1275 8.10294 32.5732 8.93299 32.8736 9.90139C33.1739 10.8599 33.3241 11.9271 33.3241 13.103V14.8817H20.8253V12.0358H29.2111V11.7097C29.2111 11.1168 29.1045 10.5882 28.8914 10.1237C28.6879 9.64941 28.3779 9.27391 27.9612 8.99723C27.5446 8.72054 27.0117 8.5822 26.3625 8.5822C25.8103 8.5822 25.3355 8.70572 24.9382 8.95276C24.541 9.1998 24.2164 9.54566 23.9645 9.99033C23.7223 10.435 23.5382 10.9587 23.4122 11.5615C23.296 12.1544 23.2378 12.8066 23.2378 13.5181V14.111C23.2378 14.7533 23.325 15.3462 23.4994 15.8897C23.6835 16.4332 23.9403 16.9025 24.2697 17.2978C24.6088 17.6931 25.0158 17.9994 25.4905 18.2168C25.975 18.4342 26.5224 18.5429 27.1328 18.5429C27.8886 18.5429 28.591 18.3947 29.2402 18.0982C29.899 17.7919 30.4658 17.3324 30.9406 16.7197L32.9753 18.9727C32.6459 19.4569 32.1953 19.9214 31.6237 20.366C31.0617 20.8107 30.3835 21.1763 29.589 21.4629C28.7945 21.7396 27.8886 21.8779 26.8712 21.8779Z" fill="#0073A4"/>
<path d="M39.8933 8.86382V21.5815H35.6931V5.5436H39.6317L39.8933 8.86382ZM39.3119 12.9993H38.1492C38.1492 11.8827 38.28 10.855 38.5416 9.91622C38.8129 8.96758 39.2053 8.14741 39.7189 7.45569C40.2421 6.7541 40.8864 6.21061 41.6518 5.82522C42.4173 5.43984 43.3038 5.24715 44.3115 5.24715C45.0091 5.24715 45.6486 5.35584 46.2299 5.57324C46.8112 5.78075 47.3102 6.11179 47.7268 6.56634C48.1532 7.01102 48.4826 7.59403 48.7151 8.31539C48.9477 9.02687 49.0639 9.88163 49.0639 10.8797V21.5815H44.8783V11.354C44.8783 10.6228 44.7814 10.0595 44.5876 9.66424C44.3938 9.26897 44.1177 8.99228 43.7592 8.83418C43.4104 8.67607 42.9889 8.59702 42.4948 8.59702C41.9522 8.59702 41.4774 8.71066 41.0705 8.93794C40.6732 9.16521 40.3438 9.48143 40.0822 9.88657C39.8206 10.2818 39.6268 10.7463 39.5009 11.2799C39.3749 11.8135 39.3119 12.3866 39.3119 12.9993ZM48.6715 12.5101L47.1746 12.7028C47.1746 11.6554 47.3005 10.682 47.5524 9.78282C47.814 8.88359 48.1968 8.09306 48.7006 7.41122C49.2141 6.72939 49.8487 6.20072 50.6045 5.82522C51.3602 5.43984 52.2323 5.24715 53.2205 5.24715C53.9763 5.24715 54.6642 5.36079 55.2843 5.58806C55.9044 5.80546 56.4324 6.15626 56.8685 6.64046C57.3141 7.11477 57.6533 7.73732 57.8858 8.50809C58.128 9.27885 58.2491 10.2225 58.2491 11.3392V21.5815H54.0489V11.3392C54.0489 10.5981 53.9521 10.0348 53.7583 9.64941C53.5742 9.25415 53.3029 8.9824 52.9444 8.83418C52.5956 8.67607 52.179 8.59702 51.6945 8.59702C51.1907 8.59702 50.7498 8.70078 50.372 8.90829C49.9941 9.10592 49.6792 9.38261 49.4273 9.73835C49.1754 10.0941 48.9864 10.5091 48.8605 10.9834C48.7345 11.4479 48.6715 11.9568 48.6715 12.5101Z" fill="#0073A4"/>
<path d="M60.8216 13.7256V13.4143C60.8216 12.2384 60.9863 11.1564 61.3157 10.1682C61.6451 9.17015 62.1247 8.30551 62.7545 7.57427C63.3843 6.84303 64.1594 6.27484 65.0799 5.86969C66.0004 5.45466 67.0565 5.24715 68.2482 5.24715C69.44 5.24715 70.5009 5.45466 71.4311 5.86969C72.3612 6.27484 73.1412 6.84303 73.771 7.57427C74.4104 8.30551 74.8949 9.17015 75.2243 10.1682C75.5537 11.1564 75.7185 12.2384 75.7185 13.4143V13.7256C75.7185 14.8916 75.5537 15.9737 75.2243 16.9717C74.8949 17.9599 74.4104 18.8245 73.771 19.5656C73.1412 20.2969 72.3661 20.8651 71.4456 21.2702C70.5251 21.6754 69.469 21.8779 68.2773 21.8779C67.0855 21.8779 66.0246 21.6754 65.0944 21.2702C64.174 20.8651 63.394 20.2969 62.7545 19.5656C62.1247 18.8245 61.6451 17.9599 61.3157 16.9717C60.9863 15.9737 60.8216 14.8916 60.8216 13.7256ZM65.0072 13.4143V13.7256C65.0072 14.3975 65.0654 15.025 65.1816 15.608C65.2979 16.1911 65.482 16.7049 65.7339 17.1496C65.9955 17.5844 66.3346 17.9253 66.7513 18.1723C67.1679 18.4194 67.6766 18.5429 68.2773 18.5429C68.8586 18.5429 69.3576 18.4194 69.7742 18.1723C70.1909 17.9253 70.5251 17.5844 70.7771 17.1496C71.029 16.7049 71.2131 16.1911 71.3293 15.608C71.4553 15.025 71.5183 14.3975 71.5183 13.7256V13.4143C71.5183 12.7621 71.4553 12.1495 71.3293 11.5763C71.2131 10.9933 71.0241 10.4795 70.7625 10.0348C70.5106 9.58024 70.1763 9.2245 69.7597 8.96758C69.3431 8.71066 68.8392 8.5822 68.2482 8.5822C67.6572 8.5822 67.1534 8.71066 66.7367 8.96758C66.3298 9.2245 65.9955 9.58024 65.7339 10.0348C65.482 10.4795 65.2979 10.9933 65.1816 11.5763C65.0654 12.1495 65.0072 12.7621 65.0072 13.4143Z" fill="#0073A4"/>
<path d="M86.793 13.8886H81.4011V10.4202H86.793C87.6263 10.4202 88.3045 10.2818 88.8277 10.0052C89.3509 9.71859 89.7336 9.32332 89.9759 8.81936C90.2181 8.31539 90.3392 7.7472 90.3392 7.11477C90.3392 6.47247 90.2181 5.87463 89.9759 5.32126C89.7336 4.76789 89.3509 4.32321 88.8277 3.98724C88.3045 3.65126 87.6263 3.48328 86.793 3.48328H82.9126V21.5815H78.5525V0H86.793C88.4499 0 89.8693 0.306331 91.0514 0.918992C92.2431 1.52177 93.1539 2.35677 93.7837 3.42399C94.4134 4.4912 94.7283 5.71158 94.7283 7.08513C94.7283 8.47844 94.4134 9.684 93.7837 10.7018C93.1539 11.7196 92.2431 12.5052 91.0514 13.0586C89.8693 13.6119 88.4499 13.8886 86.793 13.8886Z" fill="#0073A4"/>
<path d="M96.6032 13.7256V13.4143C96.6032 12.2384 96.7679 11.1564 97.0973 10.1682C97.4267 9.17015 97.9063 8.30551 98.5361 7.57427C99.1659 6.84303 99.941 6.27484 100.861 5.86969C101.782 5.45466 102.838 5.24715 104.03 5.24715C105.222 5.24715 106.283 5.45466 107.213 5.86969C108.143 6.27484 108.923 6.84303 109.553 7.57427C110.192 8.30551 110.676 9.17015 111.006 10.1682C111.335 11.1564 111.5 12.2384 111.5 13.4143V13.7256C111.5 14.8916 111.335 15.9737 111.006 16.9717C110.676 17.9599 110.192 18.8245 109.553 19.5656C108.923 20.2969 108.148 20.8651 107.227 21.2702C106.307 21.6754 105.251 21.8779 104.059 21.8779C102.867 21.8779 101.806 21.6754 100.876 21.2702C99.9556 20.8651 99.1756 20.2969 98.5361 19.5656C97.9063 18.8245 97.4267 17.9599 97.0973 16.9717C96.7679 15.9737 96.6032 14.8916 96.6032 13.7256ZM100.789 13.4143V13.7256C100.789 14.3975 100.847 15.025 100.963 15.608C101.079 16.1911 101.264 16.7049 101.516 17.1496C101.777 17.5844 102.116 17.9253 102.533 18.1723C102.949 18.4194 103.458 18.5429 104.059 18.5429C104.64 18.5429 105.139 18.4194 105.556 18.1723C105.972 17.9253 106.307 17.5844 106.559 17.1496C106.811 16.7049 106.995 16.1911 107.111 15.608C107.237 15.025 107.3 14.3975 107.3 13.7256V13.4143C107.3 12.7621 107.237 12.1495 107.111 11.5763C106.995 10.9933 106.806 10.4795 106.544 10.0348C106.292 9.58024 105.958 9.2245 105.541 8.96758C105.125 8.71066 104.621 8.5822 104.03 8.5822C103.439 8.5822 102.935 8.71066 102.518 8.96758C102.111 9.2245 101.777 9.58024 101.516 10.0348C101.264 10.4795 101.079 10.9933 100.963 11.5763C100.847 12.1495 100.789 12.7621 100.789 13.4143Z" fill="#0073A4"/>
<path d="M118.258 9.04169V21.5815H114.072V5.5436H118.011L118.258 9.04169ZM122.996 5.43984L122.923 9.39743C122.72 9.36779 122.473 9.34308 122.182 9.32332C121.901 9.29367 121.644 9.27885 121.412 9.27885C120.821 9.27885 120.307 9.35791 119.871 9.51601C119.445 9.66424 119.087 9.88657 118.796 10.183C118.515 10.4795 118.302 10.8401 118.156 11.2651C118.021 11.69 117.943 12.1742 117.924 12.7177L117.081 12.4509C117.081 11.4133 117.183 10.4597 117.386 9.59012C117.59 8.71066 117.885 7.94483 118.273 7.29264C118.67 6.64046 119.154 6.13649 119.726 5.78075C120.298 5.42502 120.952 5.24715 121.688 5.24715C121.921 5.24715 122.158 5.26691 122.4 5.30644C122.642 5.33608 122.841 5.38055 122.996 5.43984Z" fill="#0073A4"/>
<path d="M133.402 5.5436V8.56738H124.246V5.5436H133.402ZM126.513 1.586H130.699V16.7494C130.699 17.2138 130.757 17.5695 130.873 17.8166C130.999 18.0636 131.183 18.2366 131.426 18.3354C131.668 18.4243 131.973 18.4688 132.341 18.4688C132.603 18.4688 132.835 18.4589 133.039 18.4391C133.252 18.4095 133.431 18.3798 133.577 18.3502L133.591 21.4925C133.233 21.6111 132.845 21.705 132.428 21.7742C132.012 21.8433 131.552 21.8779 131.048 21.8779C130.127 21.8779 129.323 21.7248 128.635 21.4184C127.957 21.1022 127.434 20.5983 127.065 19.9065C126.697 19.2148 126.513 18.3057 126.513 17.1792V1.586Z" fill="#0073A4"/>
<path d="M0 29.8605H138V34H0V29.8605Z" fill="#0073A4"/>
</svg>
