<svg width="44" height="44" viewBox="0 0 44 44" fill="none" xmlns="http://www.w3.org/2000/svg">
<rect opacity="0.05" width="44" height="44" rx="22" fill="#002C44"/>
<g opacity="0.5">
<path d="M26.9782 21.346C27.6232 20.389 28.0002 19.238 28.0002 18V16C28.0002 12.691 25.3092 10 22.0002 10C18.6912 10 16.0002 12.691 16.0002 16V18C16.0002 19.238 16.3772 20.389 17.0222 21.346C14.0262 23.074 12.0002 26.3 12.0002 30V31C12.0002 32.654 13.3462 34 15.0002 34H29.0002C30.6542 34 32.0002 32.654 32.0002 31V30C32.0002 26.3 29.9742 23.074 26.9782 21.346ZM18.0002 16C18.0002 13.794 19.7942 12 22.0002 12C24.2062 12 26.0002 13.794 26.0002 16V18C26.0002 20.206 24.2062 22 22.0002 22C19.7942 22 18.0002 20.206 18.0002 18V16ZM30.0002 31C30.0002 31.551 29.5512 32 29.0002 32H15.0002C14.4492 32 14.0002 31.551 14.0002 31V30C14.0002 26.861 15.8182 24.14 18.4562 22.831C19.4512 23.562 20.6742 24 22.0002 24C23.3262 24 24.5492 23.562 25.5442 22.831C28.1821 24.14 30.0001 26.861 30.0001 30V31H30.0002Z" fill="#002C44"/>
</g>
</svg>
